<?xml version="1.0" encoding="iso-8859-1"?>
<!-- Generator: Adobe Illustrator 18.0.0, SVG Export Plug-In . SVG Version: 6.00 Build 0)  -->
<!DOCTYPE svg PUBLIC "-//W3C//DTD SVG 1.1//EN" "http://www.w3.org/Graphics/SVG/1.1/DTD/svg11.dtd">
<svg version="1.1" id="Capa_1" xmlns="http://www.w3.org/2000/svg" xmlns:xlink="http://www.w3.org/1999/xlink" x="0px" y="0px"
	 viewBox="0 0 486.107 486.107" style="enable-background:new 0 0 486.107 486.107;" xml:space="preserve">
<g>
	<path d="M338.551,117.798c27.142,0,49.224-22.083,49.224-49.227c0-27.143-22.082-49.225-49.224-49.225
		c-27.144,0-49.226,22.083-49.226,49.225C289.325,95.715,311.407,117.798,338.551,117.798z M338.551,27.846
		c22.455,0,40.724,18.269,40.724,40.725c0,22.457-18.269,40.727-40.724,40.727c-22.456,0-40.726-18.27-40.726-40.727
		C297.825,46.115,316.095,27.846,338.551,27.846z"/>
	<path d="M100.182,65.327H16.804C7.538,65.327,0,72.865,0,82.13v367.826c0,9.266,7.538,16.804,16.804,16.804h83.378
		c9.266,0,16.804-7.538,16.804-16.804V82.13C116.985,72.865,109.447,65.327,100.182,65.327z M8.5,449.957V82.13
		c0-4.579,3.725-8.303,8.304-8.303H33.33V458.26H16.804C12.225,458.26,8.5,454.535,8.5,449.957z M108.485,449.957
		c0,4.579-3.725,8.304-8.304,8.304H41.83V73.827h31.998v125.816c0,2.347,1.902,4.25,4.25,4.25c2.348,0,4.25-1.903,4.25-4.25V73.827
		h17.854c4.579,0,8.304,3.725,8.304,8.303V449.957z"/>
	<path d="M135.332,117.974c1.088,0,2.176-0.415,3.005-1.245l41.427-41.427c1.66-1.66,1.66-4.351,0-6.011
		c-1.658-1.659-4.352-1.659-6.01,0l-41.427,41.427c-1.66,1.66-1.66,4.351,0,6.011C133.156,117.559,134.244,117.974,135.332,117.974z
		"/>
	<path d="M133.495,91.351c0.593,0.284,1.218,0.418,1.834,0.418c1.584,0,3.105-0.89,3.836-2.415l28.873-60.258
		c1.014-2.117,0.12-4.655-1.996-5.669c-2.117-1.015-4.655-0.121-5.67,1.996l-28.873,60.258
		C130.485,87.799,131.379,90.337,133.495,91.351z"/>
	<path d="M138.337,140.163c-1.658-1.659-4.352-1.659-6.01,0c-1.66,1.66-1.66,4.351,0,6.011l41.427,41.427
		c0.829,0.83,1.917,1.245,3.005,1.245c1.088,0,2.176-0.415,3.005-1.245c1.66-1.66,1.66-4.351,0-6.011L138.337,140.163z"/>
	<path d="M139.165,167.538c-1.015-2.117-3.553-3.012-5.67-1.996c-2.116,1.014-3.01,3.552-1.996,5.669l28.873,60.258
		c0.73,1.524,2.251,2.415,3.836,2.415c0.616,0,1.241-0.134,1.834-0.419c2.116-1.014,3.01-3.552,1.996-5.669L139.165,167.538z"/>
	<path d="M205.27,229.376c0,7.189,5.849,13.037,13.038,13.037c7.188,0,13.037-5.849,13.037-13.037v-3.627l29.083,27.076
		c4.006,3.749,9.234,5.813,14.725,5.813c0,0,0.001,0,0.002,0c5.54,0,10.912-2.162,14.922-5.98v34.185l-77.725,1.57
		c-0.027,0-0.055,0-0.083,0.001c-12.652,0.266-23.858,8.029-28.552,19.784c-1.563,3.909-2.311,8.044-2.229,12.206
		c0,0.05,0.001,0.112,0.004,0.174l2.201,108.878c0.343,16.989,14.441,30.811,31.43,30.811c0.214,0,0.426-0.002,0.642-0.006
		c8.399-0.169,16.23-3.599,22.047-9.657c5.816-6.057,8.927-14.019,8.757-22.417l-1.564-77.529l69.224-1.398l-0.001,70.396
		c-0.002,12.669,7.536,24.043,19.199,28.976c3.882,1.644,8.003,2.476,12.15,2.474c0.051,0,0.113-0.001,0.176,0l108.909-0.001
		c0.091,0,0.179,0.001,0.269-0.001c17.212-0.144,31.176-14.194,31.176-31.441c0.001-8.401-3.269-16.299-9.208-22.238
		c-5.939-5.939-13.836-9.21-22.234-9.21l-77.543-0.001l-0.002-54.99c6.209-8.147,9.906-18.308,9.906-29.319V176.49
		c0-26.73-21.746-48.476-48.475-48.476c-26.729,0-48.475,21.746-48.475,48.476v13.058l-16.008,17.076l-31.399-29.31
		c-3.164-2.991-7.099-4.906-11.324-5.597v-39.005c0-7.189-5.849-13.038-13.037-13.038c-4.023,0-7.626,1.834-10.02,4.708h-71.701
		c-2.348,0-4.25,1.903-4.25,4.25s1.902,4.25,4.25,4.25h68.683V229.376z M218.308,128.175c2.502,0,4.537,2.036,4.537,4.538v39.301
		c-3.335,0.799-6.46,2.378-9.075,4.622v-43.923C213.77,130.21,215.806,128.175,218.308,128.175z M222.845,229.376
		c0,2.502-2.035,4.537-4.537,4.537c-2.502,0-4.538-2.035-4.538-4.537v-19.989l9.075,8.449V229.376z M275.154,250.139h-0.001
		c-3.325,0-6.492-1.25-8.926-3.527l-47.375-44.105c-2.539-2.4-3.992-5.646-4.09-9.14c-0.098-3.494,1.17-6.816,3.571-9.357
		c2.496-2.641,5.874-4.096,9.51-4.096c3.355,0,6.546,1.27,9.005,3.595l34.52,32.222c1.715,1.6,4.397,1.51,6.001-0.2l47.24-50.392
		c2.496-2.641,5.873-4.095,9.51-4.095c3.354,0,6.546,1.27,8.985,3.576c5.243,4.956,5.477,13.253,0.509,18.51l-58.929,62.903
		C282.181,248.681,278.797,250.139,275.154,250.139z M298.576,243.637l51.228-54.682c8.174-8.649,7.788-22.337-0.859-30.512
		c-4.025-3.804-9.29-5.899-14.825-5.899c-5.91,0-11.628,2.462-15.699,6.769l-19.844,21.168v-3.991
		c0-22.043,17.933-39.976,39.975-39.976c22.042,0,39.975,17.933,39.975,39.976v127.416c0,21.809-17.56,39.583-39.281,39.955
		c8.672-5.76,14.321-15.688,14.097-26.844c-0.349-17.205-14.784-31.159-32.077-30.803l-22.688,0.458V243.637z M240.584,342.247
		c-2.347,0.047-4.211,1.988-4.163,4.335l1.649,81.777c0.124,6.129-2.145,11.938-6.39,16.358c-4.192,4.365-9.817,6.85-15.859,7.031
		v-87.112c0-2.347-1.902-4.25-4.25-4.25c-2.348,0-4.25,1.903-4.25,4.25v85.745c-8.639-3.171-14.935-11.43-15.13-21.095
		l-2.202-108.924c-0.001-0.029-0.001-0.06-0.003-0.09c-0.055-3.085,0.491-6.086,1.624-8.919
		c3.424-8.577,11.598-14.242,20.828-14.439c0.013,0,0.025,0,0.038,0l108.959-2.201l0.477-0.005c12.394,0,22.68,10.086,22.931,22.482
		c0.254,12.65-9.832,23.15-22.483,23.407h-0.002l0,0l-0.1,0.002L240.584,342.247z M454.857,442.605c-0.064,0-0.131,0.001-0.195,0
		l-108.946,0.001c-0.024,0-0.054-0.001-0.081,0.001c-3.087-0.003-6.078-0.611-8.894-1.803c-8.514-3.601-14.015-11.902-14.015-21.155
		l0.002-69.93c5.088,1.761,10.399,2.659,15.825,2.659c11.352,0,21.795-3.933,30.064-10.493l0.001,50.579
		c0,2.347,1.903,4.25,4.25,4.251l81.795,0c6.128,0,11.893,2.386,16.225,6.72c4.333,4.334,6.719,10.097,6.718,16.227
		c0,0.749-0.038,1.489-0.109,2.22h-69.436c-2.348,0-4.25,1.903-4.25,4.25s1.902,4.25,4.25,4.25h66.879
		C471.113,437.592,463.557,442.532,454.857,442.605z"/>
</g>
<g>
</g>
<g>
</g>
<g>
</g>
<g>
</g>
<g>
</g>
<g>
</g>
<g>
</g>
<g>
</g>
<g>
</g>
<g>
</g>
<g>
</g>
<g>
</g>
<g>
</g>
<g>
</g>
<g>
</g>
</svg>
